<?xml version="1.0" encoding="UTF-8"?>
<svg width="512" height="512" viewBox="0 0 512 512" xmlns="http://www.w3.org/2000/svg">
  <defs>
    <linearGradient id="bgGradient" x1="0%" y1="0%" x2="100%" y2="100%">
      <stop offset="0%" style="stop-color:#27042E;stop-opacity:1" />
      <stop offset="100%" style="stop-color:#B170CC;stop-opacity:1" />
    </linearGradient>
  </defs>
  
  <!-- Background with rounded corners -->
  <rect width="512" height="512" rx="76.8" ry="76.8" fill="url(#bgGradient)"/>
  
  <!-- Eco/Leaf Icon Group -->
  <g transform="translate(256.0, 256.0)">
    <!-- Main leaf shape -->
    <g transform="scale(17.066666666666666)">
      <!-- Large leaf -->
      <path d="M -8 4 Q -8 -6 -2 -10 Q 4 -12 10 -10 Q 14 -8 14 2 Q 14 8 10 12 Q 4 14 -2 12 Q -8 10 -8 4 Z" 
            fill="white" opacity="0.95"/>
      
      <!-- Center vein -->
      <path d="M 4 -10 L 4 12" stroke="white" stroke-width="1.5" stroke-linecap="round" opacity="0.7"/>
      
      <!-- Side veins -->
      <path d="M 4 -5 Q 7 -3 8 0" stroke="white" stroke-width="0.8" stroke-linecap="round" opacity="0.5" fill="none"/>
      <path d="M 4 0 Q 7 2 8 5" stroke="white" stroke-width="0.8" stroke-linecap="round" opacity="0.5" fill="none"/>
      <path d="M 4 -5 Q 1 -3 0 0" stroke="white" stroke-width="0.8" stroke-linecap="round" opacity="0.5" fill="none"/>
      <path d="M 4 0 Q 1 2 0 5" stroke="white" stroke-width="0.8" stroke-linecap="round" opacity="0.5" fill="none"/>
      
      <!-- Small berry/fruit circle -->
      <circle cx="-6" cy="-4" r="2.5" fill="white" opacity="0.9"/>
    </g>
  </g>
</svg>